<?xml version="1.0" encoding="UTF-8" standalone="no"?>
<svg
   width="30px"
   height="30px"
   version="1.1"
   id="svg1"
   sodipodi:docname="button_b.svg"
   inkscape:version="1.4.2 (ebf0e940d0, 2025-05-08)"
   inkscape:export-filename="button_b.png"
   inkscape:export-xdpi="1600"
   inkscape:export-ydpi="1600"
   xmlns:inkscape="http://www.inkscape.org/namespaces/inkscape"
   xmlns:sodipodi="http://sodipodi.sourceforge.net/DTD/sodipodi-0.dtd"
   xmlns="http://www.w3.org/2000/svg"
   xmlns:svg="http://www.w3.org/2000/svg"
   xmlns:bx="https://boxy-svg.com">
  <sodipodi:namedview
     id="namedview1"
     pagecolor="#505050"
     bordercolor="#ffffff"
     borderopacity="1"
     inkscape:showpageshadow="0"
     inkscape:pageopacity="0"
     inkscape:pagecheckerboard="1"
     inkscape:deskcolor="#505050"
     inkscape:zoom="16.200884"
     inkscape:cx="0.37035016"
     inkscape:cy="22.251872"
     inkscape:window-width="2048"
     inkscape:window-height="1208"
     inkscape:window-x="0"
     inkscape:window-y="0"
     inkscape:window-maximized="1"
     inkscape:current-layer="svg1" />
  <defs
     id="defs1">
    <bx:export>
      <bx:file
         format="png"
         width="500"
         height="500"
         path="stick.png" />
    </bx:export>
    <style
       bx:fonts="Karrik"
       bx:pinned="true"
       id="style1" />
  </defs>
  <path
     d="m 13.154297,11.986328 v 2.080078 h 1.945312 c 1.039998,0 1.533203,-0.427085 1.533203,-1.09375 10e-7,-0.573332 -0.453205,-0.986328 -1.533203,-0.986328 z"
     style="fill:#ffffff"
     id="path3" />
  <path
     d="m 13.154297,15.585938 v 2.374999 h 2.185547 c 1.05333,0 1.560547,-0.386903 1.560547,-1.240234 0,-0.879998 -0.52055,-1.134765 -1.560547,-1.134765 z"
     style="fill:#ffffff"
     id="path2" />
  <path
     d="M 15,5 A 10,10 0 0 0 5,15 10,10 0 0 0 15,25 10,10 0 0 0 25,15 10,10 0 0 0 15,5 Z m -2.6875,5.533203 h 3.134766 c 1.986662,0 3,1.065889 3,2.199219 0,0.879998 -0.467659,1.653673 -1.347657,2.013672 1.053331,0.293332 1.613282,1.013414 1.613282,2.080078 0,1.666663 -1.105812,2.640625 -3.119141,2.640625 H 12.3125 c -0.666665,0 -1.025391,-0.374013 -1.025391,-1.027344 v -6.878906 c 0,-0.666665 0.358726,-1.027344 1.025391,-1.027344 z"
     style="fill:#ffffff"
     id="path1" />
</svg>
